<svg width="54" height="54" fill="none" xmlns="http://www.w3.org/2000/svg"><path d="m16.54 33.75-1.433 5.227c-1.414 5.156-2.12 7.735-1.177 9.146.33.495.774.892 1.288 1.154 1.469.748 3.736-.434 8.27-2.797 1.51-.786 2.264-1.179 3.065-1.264.297-.032.597-.032.894 0 .801.085 1.556.478 3.065 1.264 4.534 2.363 6.801 3.545 8.27 2.797a3.423 3.423 0 0 0 1.288-1.154c.944-1.411.237-3.99-1.177-9.146L37.46 33.75" stroke="#1C274C" stroke-width="2" stroke-linecap="round"/><path d="M12.375 14.393a15.708 15.708 0 0 0-1.125 5.857C11.25 28.948 18.302 36 27 36c8.699 0 15.75-7.052 15.75-15.75S35.699 4.5 27 4.5c-2.07 0-4.046.4-5.857 1.125" stroke="#1C274C" stroke-width="2" stroke-linecap="round"/></svg>