<svg width="72" height="72" fill="none" xmlns="http://www.w3.org/2000/svg"><g clip-path="url(#a)"><path d="M69.808 34.599a1.072 1.072 0 0 0-.013-1.05l-6.097-10.561 5.68-10.311a1.072 1.072 0 0 0-.013-1.05L63.498 1.466a1.07 1.07 0 0 0-.901-.535L50.227.682a1.054 1.054 0 0 0-.944.546L43.62 11.506l-11.732-.235a1.054 1.054 0 0 0-.945.545l-5.97 10.837a1.07 1.07 0 0 0 .013 1.048l5.581 9.667-4.803 9.798a1.07 1.07 0 0 0 .036 1.004l6.4 11.085c.179.31.498.51.852.533l10.886.74 5.581 9.667c.188.324.531.527.903.535l12.37.249a1.056 1.056 0 0 0 .944-.546l5.97-10.836a1.072 1.072 0 0 0-.013-1.05l-5.565-9.637 5.68-10.311Zm-2.148-.514-5.373 9.753-9.038-.181-2.095-.042-5.796-10.039.03-.053 5.343-9.7 11.072.223h.06l5.797 10.04ZM50.834 2.824l11.133.225 5.262 9.114-5.372 9.753-11.133-.223-5.263-9.115 5.373-9.754ZM27.122 23.166l5.372-9.754 11.133.225 5.263 9.114-5.373 9.754-11.133-.224-5.262-9.115Zm.797 20.44 4.507-9.194 8.273.166 2.826.057 5.795 10.038-5.206 9.452-.15.271-10.215-.694-5.83-10.096Zm34.265 21.23-11.133-.223-5.262-9.115 5.373-9.753 11.132.224 5.263 9.114-5.373 9.754Z" fill="#fff"/></g><defs><clipPath id="a"><path fill="#fff" d="M0 0h72v72H0z"/></clipPath></defs></svg>