<svg width="72" height="72" fill="none" xmlns="http://www.w3.org/2000/svg"><path d="M6 36c0-11.314 0-16.97 3.515-20.485C13.029 12 18.686 12 30 12h12c11.314 0 16.97 0 20.485 3.515C66 19.029 66 24.686 66 36v6c0 11.314 0 16.97-3.515 20.485C58.971 66 53.314 66 42 66H30c-11.314 0-16.97 0-20.485-3.515C6 58.971 6 53.314 6 42v-6Z" stroke="#fff" stroke-width="2"/><path opacity=".5" d="M21 12V7.5M51 12V7.5M7.5 27h57" stroke="#fff" stroke-width="2" stroke-linecap="round"/><path d="M54 51a3 3 0 1 1-6 0 3 3 0 0 1 6 0Zm0-12a3 3 0 1 1-6 0 3 3 0 0 1 6 0ZM39 51a3 3 0 1 1-6 0 3 3 0 0 1 6 0Zm0-12a3 3 0 1 1-6 0 3 3 0 0 1 6 0ZM24 51a3 3 0 1 1-6 0 3 3 0 0 1 6 0Zm0-12a3 3 0 1 1-6 0 3 3 0 0 1 6 0Z" fill="#fff"/></svg>