<svg width="65" height="65" fill="none" xmlns="http://www.w3.org/2000/svg"><g clip-path="url(#a)"><path d="M32.396 20.87c.552 0 .972-.21 1.523-.708l8.742-8.138c.446-.394.682-.867.682-1.47 0-1.077-.813-1.865-1.916-1.865-.525 0-1.024.237-1.444.63l-3.413 3.413-2.257 2.363.183-4.41V2.02c0-1.102-.97-2.021-2.1-2.021-1.129 0-2.074.919-2.074 2.021v8.664l.158 4.41-2.258-2.363L24.81 9.32c-.393-.393-.918-.63-1.444-.63-1.128 0-1.916.788-1.916 1.864 0 .604.236 1.077.709 1.47l8.716 8.139c.551.498.997.708 1.522.708ZM10.292 40.848H54.5c4.384 0 7.43-2.966 7.43-7.01v-2.677c0-4.043-3.046-7.01-7.43-7.01H10.292c-4.358 0-7.43 2.967-7.43 7.01v2.678c0 4.043 3.072 7.01 7.43 7.01Zm.551-3.964c-2.362 0-3.806-1.575-3.806-3.702v-1.365c0-2.126 1.444-3.701 3.806-3.701H53.95c2.363 0 3.807 1.575 3.807 3.701v1.365c0 2.127-1.444 3.702-3.807 3.702H10.843ZM32.396 65c1.13 0 2.1-.919 2.1-2.021v-8.664l-.183-4.41 2.257 2.363 3.413 3.413c.42.393.919.63 1.444.63 1.103 0 1.916-.762 1.916-1.864 0-.604-.236-1.05-.682-1.47l-8.742-8.139c-.551-.498-.971-.682-1.523-.682-.525 0-.971.184-1.522.682l-8.716 8.139c-.473.42-.709.866-.709 1.47 0 1.102.788 1.863 1.916 1.863.526 0 1.05-.236 1.445-.63l3.412-3.412 2.258-2.363-.158 4.41v8.664c0 1.102.945 2.021 2.074 2.021Z" fill="#fff"/></g><defs><clipPath id="a"><path fill="#fff" d="M0 0h65v65H0z"/></clipPath></defs></svg>