<svg width="65" height="65" fill="none" xmlns="http://www.w3.org/2000/svg"><path d="M32.475 32.932h8.48a2.45 2.45 0 0 1 2.463 2.462 2.45 2.45 0 0 1-2.463 2.463h-8.43a2.45 2.45 0 0 1-2.462-2.462c-.051-1.372 1.04-2.463 2.412-2.463Zm8.48-8.938h-5.967v-4.976h5.967a2.45 2.45 0 0 1 2.463 2.462c0 1.372-1.092 2.514-2.463 2.514Zm-8.48 15.87h5.966a2.45 2.45 0 0 1 2.463 2.462 2.45 2.45 0 0 1-2.463 2.463h-5.966a2.45 2.45 0 0 1-2.463-2.463 2.45 2.45 0 0 1 2.463-2.463ZM14.143 25.01l7.668-7.719a2.488 2.488 0 0 1 1.726-.736h6.983a2.45 2.45 0 0 1 2.463 2.463v9.445a2.45 2.45 0 0 1-2.463 2.463 2.45 2.45 0 0 1-2.463-2.463v-5.46c0-.558-.457-1.015-1.016-1.015-.558 0-1.015.457-1.015 1.016 0 6.017-4.926 10.893-10.893 10.893-.559 0-1.016.456-1.016 1.015 0 .559.457 1.016 1.016 1.016a12.8 12.8 0 0 0 11.045-6.297c.33 1.04.965 1.904 1.828 2.564v10.182c0 .914.33 1.777.736 2.463h-7.21c-3.048 0-5.79-1.6-7.44-3.961H.229v-15.87h13.914Zm26.812 5.916h-6.703c.508-.686.736-1.6.736-2.463V26h5.967a2.45 2.45 0 0 1 2.463 2.463c.025 1.371-1.092 2.463-2.463 2.463Zm19.5 11.705c.254-.483.05-1.092-.431-1.346l-10.385-5.332c-.483-.254-1.092-.05-1.346.432s-.05 1.092.432 1.346l10.384 5.331c.483.254 1.092.051 1.346-.431Zm3.86-24.781a1.05 1.05 0 0 0 0-.99c-.254-.483-.89-.66-1.32-.432L50.45 23.385c-.482.254-.66.888-.431 1.32.253.483.888.66 1.32.432l12.543-6.881c.203-.076.33-.254.431-.406Zm-14.55 37.502a.879.879 0 0 0 .026-.762l-3.53-11.096c-.177-.559-.71-.812-1.218-.635-.559.178-.813.711-.635 1.22l3.58 11.146c.178.558.711.812 1.22.634a.996.996 0 0 0 .558-.507Zm10.614-25.67c.076-.153.152-.381.102-.61-.127-.584-.61-.914-1.143-.787l-7.287 1.168c-.584.127-.914.61-.787 1.143s.61.914 1.142.787l7.287-1.168c.305-.076.559-.28.686-.533ZM48.242 20.77 53.6 10.334c.254-.482.05-1.092-.432-1.346s-1.117-.05-1.371.432L46.44 19.855c-.254.483-.051 1.092.431 1.346.508.229 1.117.05 1.371-.431Z" fill="#fff"/></svg>