<svg width="65" height="65" fill="none" xmlns="http://www.w3.org/2000/svg"><path d="M32.5 24.375h-2.708c-2.554 0-3.83 0-4.624.793-.793.794-.793 2.07-.793 4.624v20.312c0 3.804 0 5.706-.913 7.072a5.417 5.417 0 0 1-1.494 1.494c-1.366.913-3.268.913-7.072.913-3.804 0-5.706 0-7.072-.913a5.416 5.416 0 0 1-1.494-1.494c-.913-1.366-.913-3.268-.913-7.072V16.25c0-5.107 0-7.66 1.586-9.247 1.587-1.586 4.14-1.586 9.247-1.586h33.854c3.804 0 5.706 0 7.072.913.591.395 1.1.903 1.494 1.494.913 1.366.913 3.268.913 7.072 0 3.804 0 5.706-.913 7.072a5.415 5.415 0 0 1-1.494 1.494c-1.366.913-3.268.913-7.072.913h-6.77" stroke="#fff" stroke-width="3" stroke-linecap="round"/><path d="M32.5 5.417v5.416m16.25-5.416v5.416M24.375 5.417v8.125m16.25-8.125v8.125M5.417 32.5h5.416M5.417 48.75h5.416m-5.416-8.125h8.125m-8.125-16.25h8.125" stroke="#fff" stroke-width="2" stroke-linecap="round"/><path d="M45.903 51.512 40.6 34.895m5.303 16.617a2.5 2.5 0 1 1-3.536 3.535 2.5 2.5 0 0 1 3.536-3.535Zm4.243-4.243-16.617-5.303m16.617 5.303a2.5 2.5 0 1 0 3.535-3.535 2.5 2.5 0 0 0-3.535 3.535Z" stroke="#fff" stroke-opacity=".5" stroke-width="2" stroke-linecap="round" stroke-linejoin="round"/></svg>