<svg width="63" height="65" fill="none" xmlns="http://www.w3.org/2000/svg"><path d="M43.595 63H19.454a1 1 0 0 1-.934-1.358L31.194 28.56c.334-.871 1.573-.851 1.879.03L44.54 61.672A1 1 0 0 1 43.595 63Z" stroke="#fff" stroke-width="3" stroke-linecap="round"/><path d="M11.973 30v2.621a1 1 0 0 0 1.291.957l38.873-11.817a1 1 0 0 0 .71-.957V19" stroke="#fff" stroke-width="3" stroke-linecap="round"/><circle cx="10" cy="21" r="7.5" stroke="#fff"/><circle cx="52" cy="10" r="7.5" stroke="#fff"/><path d="m12.32 24-.78-1.88H8.7L7.9 24h-.82l3.07-6.99L13.14 24h-.82Zm-3.33-2.58h2.26l-1.12-2.67-1.14 2.67ZM50.86 6.33h1.2c.667 0 1.177.14 1.53.42.4.307.6.767.6 1.38 0 .573-.22 1.01-.66 1.31.427.107.743.323.95.65a1.823 1.823 0 0 1 .12 1.86 1.778 1.778 0 0 1-.48.61c-.373.293-.907.44-1.6.44h-1.66V6.33Zm.74.7v2.23h.56c.1 0 .197-.003.29-.01.093-.013.203-.04.33-.08.133-.047.247-.107.34-.18a.816.816 0 0 0 .25-.33c.067-.147.1-.317.1-.51 0-.207-.04-.383-.12-.53a.966.966 0 0 0-.27-.34c-.1-.073-.22-.13-.36-.17a1.904 1.904 0 0 0-.32-.07 2.428 2.428 0 0 0-.22-.01h-.58Zm0 2.89v2.38h.85c.54 0 .93-.093 1.17-.28.293-.213.44-.52.44-.92 0-.447-.19-.773-.57-.98-.24-.133-.617-.2-1.13-.2h-.76Z" fill="#fff"/></svg>