<svg width="35" height="35" fill="none" xmlns="http://www.w3.org/2000/svg"><g clip-path="url(#a)" fill="#1C274C" fill-opacity=".6"><path d="M17.5 35A17.5 17.5 0 0 1 15.4.128a17.352 17.352 0 0 1 7.976.882 1.347 1.347 0 0 1-.909 2.537A14.808 14.808 0 0 0 8.333 29.124a14.807 14.807 0 0 0 23.833-13.461 1.355 1.355 0 0 1 2.693-.324A17.5 17.5 0 0 1 17.5 35Z"/><path d="M17.5 29.522a1.346 1.346 0 0 1-1.346-1.346V15.252a1.346 1.346 0 1 1 2.693 0v12.923a1.346 1.346 0 0 1-1.347 1.347Zm0-17.219a1.73 1.73 0 1 0 0-3.46 1.73 1.73 0 0 0 0 3.46Z"/></g><defs><clipPath id="a"><path fill="#fff" d="M0 0h35v35H0z"/></clipPath></defs></svg>