<svg width="35" height="35" fill="none" xmlns="http://www.w3.org/2000/svg"><path d="M31.847 16.226c.263-2.79.394-4.184-.083-4.76a1.448 1.448 0 0 0-.985-.536c-.693-.061-1.564.93-3.307 2.914-.901 1.026-1.352 1.539-1.854 1.618a1.349 1.349 0 0 1-.82-.13c-.464-.234-.773-.868-1.392-2.136L20.144 6.51c-1.17-2.396-1.754-3.594-2.644-3.594-.89 0-1.475 1.198-2.644 3.594l-3.262 6.685c-.62 1.268-.929 1.902-1.393 2.136a1.35 1.35 0 0 1-.82.13c-.502-.08-.952-.592-1.853-1.618-1.743-1.983-2.614-2.975-3.308-2.914a1.448 1.448 0 0 0-.984.536c-.477.576-.346 1.97-.084 4.76l.335 3.551c.55 5.852.826 8.778 2.55 10.542 1.725 1.764 4.31 1.764 9.48 1.764h3.966c5.17 0 7.755 0 9.48-1.764 1.332-1.363 1.8-3.42 2.197-6.986M13.125 26.25h8.75" stroke="#1C274C" stroke-opacity=".6" stroke-width="2" stroke-linecap="round"/></svg>