<svg width="81" height="81" fill="none" xmlns="http://www.w3.org/2000/svg"><path d="M61.334 40.358h-25.77m-16.978-9.626h6.016m-3.61 9.626h3.61m-2.406 9.626h2.406m10.736-8.448-2.145 7.12c-.812 2.697-1.218 4.044-.873 4.849.3.699.913 1.215 1.652 1.391.852.204 2.111-.425 4.63-1.685l18.818-9.41c2.217-1.108 3.326-1.662 3.682-2.412a2.41 2.41 0 0 0 0-2.062c-.356-.75-1.465-1.304-3.682-2.413l-18.844-9.422c-2.511-1.256-3.767-1.884-4.618-1.68a2.407 2.407 0 0 0-1.652 1.387c-.347.804.055 2.149.859 4.839l2.176 7.285c.123.412.184.618.209.827a2.44 2.44 0 0 1-.001.56c-.025.21-.087.415-.21.826Z" stroke="#1C274C" stroke-width="2" stroke-linecap="round" stroke-linejoin="round"/></svg>