<svg width="198" height="282" fill="none" xmlns="http://www.w3.org/2000/svg"><path d="M95.072 15.136 53.464 53.917a15 15 0 0 0-3.775 16.353l19.84 51.636a15 15 0 0 0 10.515 9.208l40.988 9.798a14.998 14.998 0 0 0 13.533-3.45l41.099-37.068a15.001 15.001 0 0 0 4.034-16.31l-19.622-53.42a15 15 0 0 0-10.593-9.416l-40.696-9.728a15 15 0 0 0-13.715 3.616Zm-32.903 132.81-40.805 36.88a15 15 0 0 0-3.859 16.725l19.966 49.646a15.001 15.001 0 0 0 10.43 8.993l41.275 9.866a15.001 15.001 0 0 0 13.36-3.295l40.31-35.238a15.002 15.002 0 0 0 4.127-16.681l-19.765-51.358a15 15 0 0 0-10.511-9.202l-40.983-9.797a15.001 15.001 0 0 0-13.545 3.461Z" stroke="#fff" stroke-opacity=".2" stroke-width="10"/></svg>