<svg width="188" height="57" fill="none" xmlns="http://www.w3.org/2000/svg"><path d="M71.724 24.92V22h-11.14V8h1.58v12.54h8.06V8h1.58v12.54h1.44v4.38h-1.52Zm8.588-2.68c-2.82 0-5.16-2.18-5.16-5.38v-.04c0-2.98 2.08-5.38 4.96-5.38 3.06 0 4.82 2.44 4.82 5.46 0 .22 0 .32-.02.5h-8.2c.22 2.24 1.8 3.5 3.64 3.5 1.44 0 2.4-.58 3.26-1.46l.96.86c-1.04 1.18-2.28 1.94-4.26 1.94Zm-3.6-5.98h6.66c-.16-1.86-1.22-3.52-3.3-3.52-1.82 0-3.14 1.52-3.36 3.52ZM87.628 22V11.66h1.54v4.42h6.18v-4.42h1.52V22h-1.52v-4.52h-6.18V22h-1.54Zm15.696 0v-8.96h-4.14v-1.38h9.84v1.38h-4.16V22h-1.54Zm7.976 3.2V11.66h1.54v2.08c.86-1.22 2.04-2.3 3.96-2.3 2.48 0 4.94 1.96 4.94 5.36v.04c0 3.36-2.44 5.38-4.94 5.38-1.92 0-3.16-1.02-3.96-2.2v5.18h-1.54Zm5.22-4.36c2 0 3.64-1.48 3.64-3.98v-.04c0-2.46-1.66-4-3.64-4-1.92 0-3.74 1.64-3.74 3.98v.04c0 2.4 1.82 4 3.74 4Zm14.721 1.4c-4.04 0-7.02-3.18-7.02-7.2V15c0-3.96 2.98-7.24 7.08-7.24 2.54 0 4.08.88 5.46 2.22l-1.08 1.16c-1.2-1.12-2.48-1.92-4.4-1.92-3.1 0-5.42 2.52-5.42 5.74V15c0 3.24 2.32 5.78 5.42 5.78 1.92 0 3.18-.74 4.52-2.02l1.04 1.02c-1.44 1.48-3.08 2.46-5.6 2.46ZM141.82 22v-8.96h-4.14v-1.38h9.84v1.38h-4.16V22h-1.54Zm7.976 3.2V11.66h1.54v2.08c.86-1.22 2.04-2.3 3.96-2.3 2.48 0 4.94 1.96 4.94 5.36v.04c0 3.36-2.44 5.38-4.94 5.38-1.92 0-3.16-1.02-3.96-2.2v5.18h-1.54Zm5.22-4.36c2 0 3.64-1.48 3.64-3.98v-.04c0-2.46-1.66-4-3.64-4-1.92 0-3.74 1.64-3.74 3.98v.04c0 2.4 1.82 4 3.74 4Zm12.781 1.4c-3.1 0-5.36-2.44-5.36-5.36v-.04c0-2.94 2.26-5.4 5.4-5.4 3.12 0 5.38 2.44 5.38 5.36v.04c0 2.94-2.3 5.4-5.42 5.4Zm.04-1.38c2.24 0 3.8-1.82 3.8-3.98v-.04c0-2.22-1.66-4.04-3.84-4.04-2.24 0-3.78 1.82-3.78 4v.04c0 2.22 1.64 4.02 3.82 4.02Zm8.17 1.14V11.66h1.54v8.02l6.28-8.02h1.48V22h-1.52v-8.04l-6.34 8.04h-1.44Zm4.64-11.86c-1.68 0-2.82-.9-2.96-2.5h1.12c.24.74.82 1.26 1.84 1.26s1.6-.52 1.84-1.26h1.12c-.14 1.6-1.28 2.5-2.96 2.5ZM72.424 46h-1.58V34.46L61.884 46h-1.3V32h1.58v11.28L70.924 32h1.5v14Zm3.7 0V35.66h1.54v4.42h6.18v-4.42h1.52V46h-1.52v-4.52h-6.18V46h-1.54ZM94.44 35.58l4.04 9.02h1.18v4.14h-1.4V46h-9.24v2.74h-1.4V44.6h1.18l4.04-9.02h1.6Zm-.8 1.54-3.26 7.52h6.46l-3.2-7.52Zm12.178 7.16 3.32-8.62h1.64l-4.34 10.68c-.88 2.14-1.9 2.92-3.44 2.92-.86 0-1.5-.18-2.2-.52l.52-1.22c.5.26.96.38 1.62.38.94 0 1.5-.48 2.12-1.94l-4.7-10.3h1.7l3.76 8.62Zm11.451 1.96c-3.04 0-5.3-2.46-5.3-5.36v-.04c0-2.94 2.26-5.4 5.3-5.4 1.96 0 3.16.8 4.14 1.84l-1.02 1.08c-.82-.86-1.72-1.56-3.14-1.56-2.1 0-3.7 1.76-3.7 4v.04c0 2.24 1.64 4.02 3.8 4.02 1.34 0 2.34-.66 3.16-1.54l.98.92c-1.04 1.18-2.28 2-4.22 2Zm9.472-.24v-8.96h-4.14v-1.38h9.84v1.38h-4.16V46h-1.54Zm7.977 3.2V35.66h1.54v2.08c.86-1.22 2.04-2.3 3.96-2.3 2.48 0 4.94 1.96 4.94 5.36v.04c0 3.36-2.44 5.38-4.94 5.38-1.92 0-3.16-1.02-3.96-2.2v5.18h-1.54Zm5.22-4.36c2 0 3.64-1.48 3.64-3.98v-.04c0-2.46-1.66-4-3.64-4-1.92 0-3.74 1.64-3.74 3.98v.04c0 2.4 1.82 4 3.74 4Zm8.061 1.16V35.66h1.54v8.02l6.28-8.02h1.48V46h-1.52v-8.04l-6.34 8.04h-1.44Zm12.754 0V35.66h1.54v8.02l6.28-8.02h1.48V46h-1.52v-8.04l-6.34 8.04h-1.44Z" fill="#fff"/><path d="M21.103 1 1 15.686V32.59l20.103 13.927L41.207 32.59V15.687L21.103 1Zm-.379 55L1 32.482M20.724 56l20.483-23.518M20.724 56l.38-9.862" stroke="#fff"/><path d="M4.793 16.931v14.035l16.31 11 15.552-11V17.311L21.103 5.173 4.793 16.93Z" stroke="#fff"/></svg>