<svg width="30" height="30" fill="none" xmlns="http://www.w3.org/2000/svg"><path d="M26.137 13.9c0 6.112-4.437 11.838-10.5 13.513a2.45 2.45 0 0 1-1.275 0c-6.062-1.675-10.5-7.4-10.5-13.513V8.412c0-1.025.775-2.187 1.738-2.575l6.962-2.85a6.484 6.484 0 0 1 4.888 0l6.962 2.85c.95.388 1.738 1.55 1.738 2.575l-.013 5.488Z" stroke="#292D32" stroke-opacity=".6" stroke-linecap="round" stroke-linejoin="round"/><path d="M15 15.625a2.5 2.5 0 1 0 0-5 2.5 2.5 0 0 0 0 5Zm0 0v3.75" stroke="#292D32" stroke-opacity=".6" stroke-miterlimit="10" stroke-linecap="round" stroke-linejoin="round"/></svg>