<svg width="23" height="23" fill="none" xmlns="http://www.w3.org/2000/svg"><path d="M20.038 10.657c0 4.686-3.402 9.075-8.05 10.36a1.878 1.878 0 0 1-.977 0c-4.648-1.285-8.05-5.674-8.05-10.36V6.45c0-.786.594-1.678 1.332-1.975L9.631 2.29a4.971 4.971 0 0 1 3.747 0l5.338 2.185c.728.297 1.332 1.189 1.332 1.975l-.01 4.207Z" stroke="#fff" stroke-opacity=".6" stroke-linecap="round" stroke-linejoin="round"/><path d="M11.5 11.98a1.917 1.917 0 1 0 0-3.834 1.917 1.917 0 0 0 0 3.833Zm0 0v2.874" stroke="#fff" stroke-opacity=".6" stroke-miterlimit="10" stroke-linecap="round" stroke-linejoin="round"/></svg>