<svg width="35" height="35" fill="none" xmlns="http://www.w3.org/2000/svg"><g clip-path="url(#a)" fill="#1C274C" fill-opacity=".6"><path d="M11.127 5.01a.403.403 0 0 0-.486-.064l-1.684.972a.404.404 0 0 0-.202.35v1.944a.404.404 0 0 0 .752.201l1.684-2.917a.404.404 0 0 0-.064-.487Zm11.114 0a.402.402 0 0 0-.486-.064l-1.684.972a.403.403 0 0 0-.202.35v1.944a.404.404 0 0 0 .751.201l1.685-2.917a.403.403 0 0 0-.064-.487Zm5.07 9.56-1.684.973a.405.405 0 0 0-.201.35v1.944a.402.402 0 0 0 .752.202l1.684-2.918a.403.403 0 0 0-.55-.55Zm-5.556 9.626-1.684.972a.402.402 0 0 0-.202.349v1.945a.403.403 0 0 0 .751.201l1.685-2.917a.403.403 0 0 0-.55-.55Zm-5.556-9.626-1.685.973a.404.404 0 0 0-.201.35v1.944a.402.402 0 0 0 .751.202l1.685-2.918a.402.402 0 0 0-.55-.55Zm-11.115 0-1.685.973a.403.403 0 0 0-.202.35v1.944a.402.402 0 0 0 .752.202l1.685-2.918a.403.403 0 0 0-.55-.55Zm5.556 9.626-1.683.972a.403.403 0 0 0-.202.349v1.945a.403.403 0 0 0 .752.201l1.684-2.917a.404.404 0 0 0-.55-.55Z"/><path d="M29.443 10.605V4.188L23.057.501 17.5 3.71 11.943.501 5.557 4.188v6.418L0 13.812v7.375l5.557 3.208v6.417l6.386 3.687 5.557-3.208 5.558 3.208 6.385-3.687v-6.417L35 21.188v-7.374l-5.557-3.208ZM18.33 5.145l4.729-2.73 4.728 2.73v5.46L25.42 11.97l-2.363 1.364-2.365-1.364-2.364-1.365v-5.46Zm-11.114 0 4.728-2.73 4.728 2.73v5.46l-2.364 1.365-2.364 1.364L9.58 11.97l-2.364-1.365v-5.46ZM1.658 20.23v-5.46l4.727-2.73 2.365 1.365 2.364 1.365v5.46l-4.729 2.73-4.727-2.73Zm15.013 9.625-4.728 2.73-4.728-2.73v-5.46l3.813-2.2.915-.529 2.364 1.364 2.364 1.366v5.459Zm-1.535-8.26-2.364-1.365v-5.46l3.713-2.143 1.015-.587 2.364 1.365 2.364 1.365v5.46L17.5 22.96l-2.364-1.366Zm12.65 8.26-4.729 2.73-4.728-2.73v-5.46l3.713-2.144 1.015-.585 2.364 1.364 2.364 1.366v5.459Zm5.556-9.625-4.728 2.73-2.364-1.366-2.364-1.364v-5.46l3.713-2.143 1.015-.587 4.728 2.73v5.46Z"/></g><defs><clipPath id="a"><path fill="#fff" d="M0 0h35v35H0z"/></clipPath></defs></svg>