<svg width="24" height="24" fill="none" xmlns="http://www.w3.org/2000/svg"><path d="M22 12.105a10.001 10.001 0 1 1-20.002 0 10.001 10.001 0 0 1 20.002 0ZM8.653 4.18a8.631 8.631 0 1 0 6.69 15.913A8.631 8.631 0 0 0 8.652 4.18Zm7.525 5.909c-.132.143-.277.278-.416.417l-.955.956-2.009 2.008a1.934 1.934 0 0 1-.51.442.707.707 0 0 1-.983-.65c-.005-.545 0-1.089 0-1.633V5.406a.7.7 0 0 1 1.247-.454c.138.22.193.483.154.74v5.891c.13-.132.262-.264.394-.395l1.545-1.545.489-.489a.818.818 0 0 1 .275-.193.7.7 0 0 1 .77 1.128Z" fill="#fff"/></svg>