<svg width="23" height="23" fill="none" xmlns="http://www.w3.org/2000/svg"><path d="M12.219 0A10.767 10.767 0 0 0 1.438 10.781c0 2.444.79 4.744 2.3 6.613l-1.51 4.6a.811.811 0 0 0 .216.79c.072.144.287.216.431.216.072 0 .216 0 .288-.072L8.121 20.7a9.976 9.976 0 0 0 4.097.863A10.767 10.767 0 0 0 23 10.78 10.767 10.767 0 0 0 12.219 0Z" fill="#25D366"/><path d="M18.472 14.734c-.288.863-1.366 1.582-2.3 1.725-.216.072-.431.072-.719.072-.575 0-1.437-.143-2.947-.79-1.725-.72-3.45-2.229-4.815-4.17V11.5c-.432-.647-1.222-1.869-1.222-3.162 0-1.582.79-2.372 1.078-2.732.36-.36.862-.575 1.437-.575h.36c.503 0 .862.144 1.222.863l.287.575c.216.575.503 1.222.575 1.293.216.432.216.791 0 1.15-.072.216-.216.36-.36.504-.071.143-.143.215-.215.215l-.144.144c.216.36.647 1.006 1.222 1.51.863.79 1.51 1.006 1.869 1.15.144-.144.287-.432.503-.648l.072-.143c.36-.503.934-.647 1.51-.431.287.143 1.868.862 1.868.862l.144.072c.216.144.503.216.647.503.287.647.072 1.581-.072 2.084Z" fill="#fff"/></svg>