<svg width="56" height="56" fill="none" xmlns="http://www.w3.org/2000/svg"><path d="M24.595 16.207a8.466 8.466 0 0 0-5.985 14.45c.389.389.809.728 1.248 1.025l11.749-11.747a8.435 8.435 0 0 0-7.011-3.728Zm-4.61 10.498a5.015 5.015 0 0 1-.425-2.033c0-1.346.523-2.61 1.475-3.561a5.006 5.006 0 0 1 3.56-1.476c.713 0 1.403.148 2.035.426l-6.644 6.644Z" fill="#1C274C"/><path d="m54.294 13.003-7.879-7.878a3.43 3.43 0 0 0-4.849 0l-1.411 1.411C35.824 2.81 30.365.777 24.595.777A23.733 23.733 0 0 0 7.703 7.776a23.735 23.735 0 0 0-7 16.896c.001 5.77 2.033 11.23 5.758 15.557L5.2 41.49a3.427 3.427 0 0 0 0 4.848l7.88 7.878a3.418 3.418 0 0 0 2.423 1.005c.877 0 1.755-.335 2.424-1.005L37.32 34.825s.002 0 .003-.002l.001-.002 16.97-16.969a3.428 3.428 0 0 0 0-4.849Zm-6.668 6.668-2.424-2.424a.856.856 0 1 0-1.212 1.212l2.424 2.424-1.818 1.819-.606-.607a.856.856 0 1 0-1.212 1.212l.606.607-1.818 1.818-.606-.607a.856.856 0 1 0-1.212 1.212l.606.607-1.818 1.819-.606-.606a.856.856 0 1 0-1.212 1.212l.606.606-1.818 1.819-.606-.606a.856.856 0 1 0-1.212 1.212l.606.606-1.82 1.817-2.423-2.424a.856.856 0 1 0-1.212 1.212l2.424 2.424-1.818 1.818-.606-.606a.856.856 0 1 0-1.212 1.212l.606.606-1.82 1.82-.605-.608a.856.856 0 1 0-1.212 1.212l.606.608-1.818 1.818-.606-.606a.856.856 0 1 0-1.212 1.212l.606.606-1.818 1.818-.606-.606a.856.856 0 1 0-1.212 1.212l.606.606-3.637 3.636-7.879-7.878 3.685-3.687a19.846 19.846 0 0 1-1.185-1.089 20.34 20.34 0 0 1-4.693-7.336l2.373-.75a.857.857 0 0 0-.518-1.634l-2.391.742c-.772-2.772-.94-5.947-.521-8.518h1.851a.856.856 0 1 0 0-1.715H4.702c.788-3.428 2.428-6.506 4.92-9.187l1.64 1.648a.853.853 0 1 0 1.212-1.205l-1.46-1.631c2.335-2.126 4.629-3.636 8.058-4.488v1.538a.856.856 0 1 0 1.714 0V4.641c.857-.283 2.588-.434 3.982-.434 2.269 0 4.445.398 6.614 1.148l-.632 1.857a.845.845 0 0 0 .784 1.115.849.849 0 0 0 .811-.598l.551-1.746a20.378 20.378 0 0 1 6.171 4.218c.382.384.74.78 1.088 1.186l3.835-3.838 7.88 7.88-4.244 4.242Z" fill="#1C274C"/></svg>