<svg width="60" height="60" fill="none" xmlns="http://www.w3.org/2000/svg"><path d="M18.766 38.162a1.875 1.875 0 0 0 3.615-.998l-3.615.998ZM8.002 11.812a1.875 1.875 0 1 0-1.003 3.613l1.003-3.613Zm42.47 27.502a1.875 1.875 0 1 0-.943-3.63l.943 3.63Zm-24.977 4.584c.774 2.801-.925 5.757-3.935 6.54l.943 3.629c4.943-1.285 7.963-6.257 6.607-11.168l-3.615.998Zm-3.935 6.54c-3.03.786-6.069-.972-6.85-3.797l-3.614.998c1.35 4.888 6.484 7.707 11.407 6.428l-.943-3.63Zm-6.85-3.797c-.774-2.802.925-5.758 3.935-6.54l-.943-3.63c-4.943 1.285-7.963 6.257-6.606 11.169l3.614-.999Zm3.935-6.54c3.03-.787 6.07.971 6.85 3.797l3.614-.999c-1.35-4.888-6.484-7.706-11.407-6.427l.943 3.63Zm3.736-2.938L17 17.688l-3.616.999 5.381 19.476 3.615-.998Zm-10.12-24.17-4.26-1.181L7 15.425l4.26 1.182 1.002-3.613Zm4.74 4.694c-.634-2.29-2.448-4.057-4.74-4.693l-1.002 3.613c1.063.295 1.856 1.099 2.127 2.079L17 17.687Zm10.773 27.526 22.698-5.899-.943-3.63-22.699 5.9.944 3.629Z" fill="#1C274C"/><path d="M23.914 21.826c-1.213-4.389-1.819-6.583-.79-8.312 1.03-1.729 3.292-2.317 7.817-3.493l4.8-1.247c4.525-1.176 6.788-1.764 8.57-.766s2.389 3.193 3.601 7.582l1.287 4.655c1.212 4.389 1.818 6.583.789 8.312-1.029 1.729-3.291 2.317-7.817 3.493l-4.8 1.247c-4.525 1.176-6.787 1.764-8.57.766-1.782-.998-2.388-3.193-3.601-7.582l-1.286-4.655Z" stroke="#1C274C" stroke-width="3"/></svg>