<svg width="60" height="60" fill="none" xmlns="http://www.w3.org/2000/svg"><path d="M7.5 11.25v37.482" stroke="#000" stroke-width="3" stroke-linecap="round"/><path d="M52.5 22.5v26.25M15 3.75h18.75" stroke="#000" stroke-width="3" stroke-linecap="round" stroke-linejoin="round"/><path d="M15 56.25h30" stroke="#000" stroke-width="3" stroke-linecap="round"/><path d="M52.5 48.75c.02 3.746-3.75 7.5-7.5 7.5m-37.5-7.5c0 3.75 3.75 7.5 7.5 7.5M7.5 11.244c0-3.744 3.75-7.41 7.5-7.494m37.48 18.767L33.75 3.75m0 11.25c.011 3.73 3.765 7.5 7.5 7.5m-7.5-7.5V3.75m7.5 18.75H52.5M15 48.75h11.25M15 41.25h18.75M15 33.75h11.25" stroke="#000" stroke-width="3" stroke-linecap="round" stroke-linejoin="round"/></svg>