<svg width="60" height="60" fill="none" xmlns="http://www.w3.org/2000/svg"><path d="M25 55c-9.428 0-14.142 0-17.071-2.929C5 49.142 5 46.928 5 37.5m50 0c0 9.428 0 11.642-2.929 14.571C49.142 55 44.428 55 35 55m0-50c9.428 0 14.142 0 17.071 2.929C55 10.858 55 13.072 55 22.5M25 5C15.572 5 10.858 5 7.929 7.929 5 10.858 5 13.072 5 22.5" stroke="#1C274C" stroke-width="3" stroke-linecap="round"/><path d="M14.731 35.15C13.244 33.424 12.5 32.562 12.5 30c0-2.561.744-3.424 2.231-5.15 2.97-3.444 7.95-7.35 15.269-7.35 7.318 0 12.299 3.906 15.269 7.35C46.756 26.576 47.5 27.439 47.5 30c0 2.562-.744 3.424-2.231 5.15-2.97 3.444-7.95 7.35-15.269 7.35-7.318 0-12.3-3.906-15.269-7.35Z" stroke="#1C274C" stroke-width="3"/><path d="M30 35a5 5 0 1 0 0-10 5 5 0 0 0 0 10Z" stroke="#1C274C" stroke-width="3"/></svg>